<svg xmlns="http://www.w3.org/2000/svg" xmlns:xlink="http://www.w3.org/1999/xlink" version="1.1" x="0px" y="0px" width="100px" height="100px" viewBox="0 0 100 100" enable-background="new 0 0 100 100" xml:space="preserve">
<g id="Captions">
</g>
<g id="Your_Icon">
	<path fill="#000000" d="M49.938,10C27.812,10,9.875,27.936,9.875,50.062c0,22.125,17.937,40.062,40.062,40.062   C72.063,90.125,90,72.188,90,50.062C90,27.936,72.063,10,49.938,10z M49.938,79.901c-16.479,0-29.839-13.359-29.839-29.839   s13.359-29.839,29.839-29.839s29.839,13.359,29.839,29.839S66.417,79.901,49.938,79.901z"/>
	<polygon fill-rule="evenodd" clip-rule="evenodd" fill="#000000" points="29.984,55.995 35.502,48.341 46.427,56.448 62.15,33.728    69.89,39.568 48.585,70.199  "/>
</g>
</svg>